<svg xmlns="http://www.w3.org/2000/svg" x="0px" y="0px" width="49" height="49" viewBox="0,0,256,256">
<g fill="#ff9502" fill-rule="nonzero" stroke="none" stroke-width="1" stroke-linecap="butt" stroke-linejoin="miter" stroke-miterlimit="10" stroke-dasharray="" stroke-dashoffset="0" style="mix-blend-mode: normal"><g transform="scale(10.66667,10.66667)"><path d="M12,12l3,-3l5,3l-5,3zM4,3l8,9l-8,9z" opacity="0.3"></path><path d="M4.2,22c-0.2,0 -0.5,-0.1 -0.7,-0.2c-0.4,-0.4 -0.5,-1 -0.1,-1.4l10,-11.5c0.4,-0.4 1,-0.5 1.4,-0.1c0.4,0.4 0.5,1 0.1,1.4l-9.9,11.4c-0.2,0.3 -0.5,0.4 -0.8,0.4z"></path><path d="M4.3,22c-0.2,0 -0.4,-0.1 -0.6,-0.2c-0.4,-0.2 -0.7,-0.7 -0.7,-1.2v-17.1c0,-0.6 0.3,-1.1 0.7,-1.3c0.5,-0.3 1,-0.2 1.6,0.1v0v0c0.4,0.3 14.2,8 14.9,8.5c0.5,0.3 0.8,0.7 0.8,1.2c0,0.5 -0.3,1 -0.8,1.3c-0.2,0.1 -3.1,1.8 -8,4.5c-3.4,1.9 -6.9,3.9 -7.1,4c-0.2,0.1 -0.5,0.2 -0.8,0.2zM5,4.4v15.1c1.1,-0.6 3.1,-1.8 6.3,-3.5c2.7,-1.5 5.7,-3.2 7.1,-4c-2.7,-1.6 -10.9,-6.2 -13.4,-7.6zM4.3,4v0v0z"></path><path d="M14.2,15.4c-0.3,0 -0.6,-0.1 -0.8,-0.3l-9.9,-11.4c-0.4,-0.4 -0.3,-1 0.1,-1.4c0.4,-0.4 1,-0.3 1.4,0.1l10,11.4c0.4,0.4 0.3,1 -0.1,1.4c-0.2,0.1 -0.4,0.2 -0.7,0.2z"></path></g></g>
</svg>