<svg width="128" height="128" viewBox="0 0 128 128" fill="none" xmlns="http://www.w3.org/2000/svg">
<path d="M66.3323 70.032C66.5723 65.79 68.6593 62.045 71.8173 59.398C74.9113 56.796 79.0653 55.205 83.6263 55.205C88.1633 55.205 92.3163 56.795 95.4063 59.398C98.5693 62.045 100.643 65.79 100.891 70.032C101.131 74.382 99.3683 78.442 96.2863 81.449C93.1283 84.499 88.6593 86.426 83.6263 86.426C78.5893 86.426 74.1003 84.511 70.9623 81.449C67.8683 78.443 66.1093 74.405 66.3563 70.052L66.3323 70.032Z" fill="#235785"/>
<path d="M39.2453 79.002C39.2733 80.662 39.8093 83.892 40.6053 86.406C42.2873 91.742 45.1423 96.679 49.0953 101.005C53.1573 105.47 58.1693 109.06 63.9453 111.615C70.0183 114.285 76.6103 115.652 83.4503 115.652C90.2903 115.643 96.8823 114.252 102.954 111.55C108.73 108.968 113.744 105.382 117.804 100.893C121.778 96.519 124.624 91.586 126.295 86.246C127.132 83.5936 127.667 80.8553 127.89 78.083C128.098 75.393 128.01 72.678 127.627 69.963C126.878 64.7317 125.032 59.7176 122.21 55.249C119.636 51.099 116.294 47.489 112.32 44.436L112.332 44.432L72.3773 13.926C72.3413 13.898 72.3093 13.87 72.2733 13.846C69.6543 11.844 65.2293 11.852 62.3633 13.854C59.4493 15.885 59.1133 19.239 61.7073 21.35L61.6953 21.358L78.3773 34.842L27.5883 34.893H27.5203C23.3233 34.897 19.2813 37.632 18.4903 41.106C17.6703 44.627 20.5253 47.566 24.9023 47.566L24.8943 47.582L50.6303 47.534L4.58028 82.524C4.52428 82.568 4.46028 82.612 4.40428 82.656C0.0692825 85.95 -1.32972 91.446 1.40028 94.9C4.17828 98.422 10.0663 98.446 14.4473 94.92L39.5053 74.51C39.5053 74.51 39.1373 77.268 39.1693 78.907L39.2453 79.002ZM103.805 88.221C98.6373 93.449 91.3893 96.431 83.5783 96.431C75.7473 96.443 68.4993 93.513 63.3303 88.289C60.8043 85.73 58.9533 82.816 57.8023 79.698C56.6771 76.6299 56.2431 73.3512 56.5313 70.096C56.8049 66.9199 57.7519 63.8386 59.3093 61.057C60.8163 58.343 62.8993 55.877 65.4493 53.79C70.4823 49.732 76.8693 47.51 83.5493 47.51C90.2583 47.502 96.6463 49.684 101.679 53.746C104.229 55.821 106.304 58.275 107.819 60.989C109.38 63.7703 110.326 66.854 110.593 70.032C110.877 73.2858 110.443 76.5623 109.322 79.63C108.175 82.772 106.32 85.686 103.789 88.245L103.805 88.221Z" fill="#E87500"/>
</svg>
