<svg width="128" height="128" viewBox="0 0 128 128" fill="none" xmlns="http://www.w3.org/2000/svg">
<path d="M35.1999 34.8996L26.8999 26.5996V86.2996L26.9999 89.0996C26.9999 90.3996 27.1999 91.8996 27.6999 93.3996L93.2999 116.5L109.6 109.3L35.1999 34.8996V34.8996Z" fill="#00C4B3"/>
<path d="M109.6 109.3L93.2999 116.5L27.8999 93.4004C29.1999 98.2004 31.8999 103.5 34.8999 106.6L56.1999 127.8L103.8 127.9L109.6 109.3Z" fill="#22D3C5"/>
<path d="M1.70001 65.1C-0.399993 67.3 0.700007 72 4.00001 75.5L18.7 90.3L27.9 93.6C27.6 92.1 27.2 90.6 27.2 89.3L27.1 86.5L26.9 26.7M109.6 109.3L116.8 92.9L93.8 27.3C92.3 27 90.8 26.7 89.5 26.6L86.6 26.5L27 26.6" fill="#0075C9"/>
<path d="M93.6 27.3C93.8 27.3 93.8 27.3 93.6 27.3C93.8 27.3 93.8 27.3 93.6 27.3ZM109.6 109.3L127.3 103.5V54.8L106.9 34.3C103.9 31.3 98.6 28.5 93.7 27.3L116.8 92.9" fill="#00A8E1"/>
<path d="M90.5 18.2L75.7 3.50001C72.3 0.100014 67.7 -0.899985 65.3 1.20001L26.9 26.6H86.4L89.3 26.7C90.6 26.7 92.1 26.9 93.6 27.4L90.5 18.2V18.2Z" fill="#00C4B3"/>
</svg>
