<svg xmlns="http://www.w3.org/2000/svg" x="0px" y="0px" width="49" height="49" viewBox="0,0,256,256">
<g fill="#ff9502" fill-rule="nonzero" stroke="none" stroke-width="1" stroke-linecap="butt" stroke-linejoin="miter" stroke-miterlimit="10" stroke-dasharray="" stroke-dashoffset="0" style="mix-blend-mode: normal"><g transform="scale(5.12,5.12)"><path d="M36.009,5.074h-22.018c-4.966,0 -8.991,4.025 -8.991,8.99v21.936c0,4.965 4.025,8.991 8.991,8.991h22.019c4.965,-0.001 8.99,-4.026 8.99,-8.991v-21.936c0,-4.965 -4.025,-8.99 -8.991,-8.99zM16.171,36.755c-0.372,0.636 -1.041,0.989 -1.728,0.989c-0.343,0 -0.691,-0.088 -1.009,-0.274c-0.953,-0.559 -1.273,-1.784 -0.714,-2.736l0.291,-0.497c0.515,-0.162 1.057,-0.25 1.614,-0.234h0.005c1.023,0.03 1.879,0.493 2.464,1.176zM27.413,32h-15.413c-1.104,0 -2,-0.896 -2,-2c0,-1.104 0.896,-2 2,-2h4.665l5.866,-10.01l-1.811,-3.091c-0.559,-0.953 -0.239,-2.178 0.714,-2.737c0.953,-0.558 2.178,-0.239 2.737,0.714l0.678,1.157l0.678,-1.157c0.558,-0.953 1.783,-1.272 2.737,-0.714c0.953,0.559 1.273,1.784 0.714,2.737l-7.677,13.101h4.18c0.625,0.416 1.162,0.966 1.549,1.64l0.003,0.004c0.44,0.765 0.537,1.593 0.38,2.356zM38,32h-2.623l1.602,2.733c0.559,0.952 0.239,2.178 -0.714,2.736c-0.318,0.187 -0.666,0.274 -1.009,0.274c-0.687,0 -1.355,-0.354 -1.728,-0.989l-6.151,-10.497c-0.834,-1.549 -0.803,-3.427 0.109,-4.943l0.826,-1.373l4.721,8.059h4.967c1.104,0 2,0.896 2,2c0,1.104 -0.896,2 -2,2z"></path></g></g>
</svg>