<svg width="128" height="128" viewBox="0 0 128 128" fill="none" xmlns="http://www.w3.org/2000/svg">
<path d="M106.691 2.38702H61.531C61.531 13.645 70.645 22.757 81.898 22.757H90.207V30.797C90.207 42.055 99.32 51.168 110.578 51.168V6.27302C110.577 5.24254 110.167 4.25459 109.438 3.52602C108.71 2.79746 107.721 2.38782 106.691 2.38702V2.38702Z" fill="#2684FF"/>
<path d="M84.313 24.902H39.153C39.153 36.16 48.262 45.27 59.52 45.27H67.828V53.312C67.828 64.57 76.941 73.684 88.199 73.684V28.789C88.1982 27.7585 87.7886 26.7704 87.06 26.0417C86.3314 25.3129 85.3435 24.903 84.313 24.902V24.902Z" fill="url(#paint0_linear_103_13)"/>
<path d="M61.934 47.414H16.77C16.77 58.672 25.883 67.785 37.14 67.785H45.45V75.828C45.45 87.082 54.562 96.195 65.82 96.195V51.301C65.8192 50.2705 65.4096 49.2825 64.681 48.5537C63.9525 47.825 62.9645 47.4151 61.934 47.414V47.414Z" fill="url(#paint1_linear_103_13)"/>
<path d="M46 101.242H49.434V118.222C49.434 122.703 47.391 125.828 42.648 125.828C40.868 125.828 39.473 125.531 38.516 125.195V121.941C39.563 122.363 40.824 122.574 42.086 122.574C45 122.574 46 120.887 46 118.434V101.242ZM55.742 99.93C57.09 99.93 58.047 100.734 58.047 102.168C58.047 103.562 57.09 104.41 55.742 104.41C54.395 104.41 53.438 103.605 53.438 102.168C53.438 100.778 54.395 99.93 55.742 99.93ZM54.047 107.07H57.352V125.66H54.047V107.07ZM65.527 125.66H62.31V107.07H65.528V110.324C66.661 108.125 68.575 106.563 72.313 106.774V109.902C68.095 109.48 65.528 110.703 65.528 114.676L65.527 125.66ZM87.758 122.32C86.539 124.773 84.234 126.04 81.273 126.04C76.188 126.04 73.621 121.855 73.621 116.363C73.621 111.125 76.316 106.691 81.668 106.691C84.449 106.691 86.625 107.914 87.758 110.324V107.07H91.063V125.66H87.758V122.32ZM82.145 123.082C85.102 123.082 87.711 121.266 87.711 117.125V115.648C87.711 111.508 85.321 109.691 82.492 109.691C78.797 109.691 76.882 112.055 76.882 116.363C76.926 120.843 78.754 123.082 82.145 123.082V123.082Z" fill="#253858"/>
<defs>
<linearGradient id="paint0_linear_103_13" x1="87.2601" y1="24.9526" x2="68.045" y2="44.7658" gradientUnits="userSpaceOnUse">
<stop offset="0.176" stop-color="#0052CC"/>
<stop offset="1" stop-color="#2684FF"/>
</linearGradient>
<linearGradient id="paint1_linear_103_13" x1="66.1805" y1="47.5879" x2="43.9635" y2="69.2029" gradientUnits="userSpaceOnUse">
<stop offset="0.176" stop-color="#0052CC"/>
<stop offset="1" stop-color="#2684FF"/>
</linearGradient>
</defs>
</svg>
