<svg width="128" height="128" viewBox="0 0 128 128" fill="none" xmlns="http://www.w3.org/2000/svg">
<path d="M3.65591 45.043C3.65591 45.043 0.628909 42.852 4.26591 39.93L12.7339 32.336C12.7339 32.336 15.1599 29.777 17.7229 32.008L95.8979 91.336V119.786C95.8979 119.786 95.8589 124.254 90.1409 123.762L3.65591 45.043Z" fill="#2489CA"/>
<path d="M23.8091 63.379L3.65608 81.742C3.65608 81.742 1.58608 83.285 3.65608 86.047L13.0121 94.574C13.0121 94.574 15.2341 96.969 18.5201 94.246L39.8791 78.008L23.8091 63.379Z" fill="#1070B3"/>
<path d="M59.1839 63.531L96.1369 35.246L95.8979 6.94899C95.8979 6.94899 94.3199 0.772995 89.0549 3.99L39.8789 48.851L59.1839 63.531Z" fill="#0877B9"/>
<path d="M90.1399 123.797C92.2849 126 94.8869 125.277 94.8869 125.277L123.684 111.055C127.371 108.535 126.855 105.41 126.855 105.41V20.465C126.855 16.73 123.043 15.441 123.043 15.441L98.0819 3.38C92.6289 0.000997543 89.0549 3.99 89.0549 3.99C89.0549 3.99 93.6479 0.672997 95.8979 6.95V119.267C95.8979 120.04 95.7339 120.797 95.4059 121.481C94.7499 122.813 93.3199 124.051 89.9019 123.532L90.1399 123.797Z" fill="#3C99D4"/>
</svg>
